# xmcd CD database file
#
# Track frame offsets:
#	150
#	21360
#	38790
#	54360
#	73123
#	92419
#	113338
#	133172
#	155671
#	177991
#	195490
#
# Disc length: 2952 seconds
#
# Revision: 6
# Processed by: cddbd v1.5.1PL0 Copyright (c) Steve Scherf et al.
# Submitted via: CDex 1.51
#
DISCID=8d0b860b
DTITLE=浜田省吾 - My First Love
DYEAR=2005
DGENRE=Rock
TTITLE0=光と影の季節
TTITLE1=この夜に乾杯!
TTITLE2=旅立ちの朝
TTITLE3=Thank you
TTITLE4=デスク越しの恋
TTITLE5=誰かどこかで
TTITLE6=I am a father
TTITLE7=花火
TTITLE8=初恋
TTITLE9=君と歩いた道 (album ver.)
TTITLE10=ある晴れた夏の日の午後
EXTD=YEAR: 2005
EXTT0=
EXTT1=
EXTT2=
EXTT3=
EXTT4=
EXTT5=
EXTT6=
EXTT7=
EXTT8=
EXTT9=
EXTT10=
PLAYORDER=
